<svg xmlns="http://www.w3.org/2000/svg"><symbol id="chevron-right-icon" viewBox="0 0 8 14"><path fill-rule="evenodd" d="M.47 13.53a.75.75 0 0 1 0-1.06L5.94 7 .47 1.53A.75.75 0 1 1 1.53.47l6 6a.75.75 0 0 1 0 1.06l-6 6a.75.75 0 0 1-1.06 0z" clip-rule="evenodd"/></symbol><symbol id="chevron-down-icon" viewBox="0 0 20 12"><path fill-rule="evenodd" d="M.586.586a2 2 0 0 1 2.828 0L10 7.172 16.586.586a2 2 0 1 1 2.828 2.828l-8 8a2 2 0 0 1-2.828 0l-8-8a2 2 0 0 1 0-2.828z" clip-rule="evenodd"/></symbol><symbol id="check-icon" viewBox="0 0 16 16"><path fill-rule="evenodd" d="M13.78 4.22a.75.75 0 0 1 0 1.06l-7.25 7.25a.75.75 0 0 1-1.06 0L2.22 9.28a.75.75 0 0 1 1.06-1.06L6 10.94l6.72-6.72a.75.75 0 0 1 1.06 0z" clip-rule="evenodd"/></symbol><symbol id="calendar-icon" viewBox="0 0 16 16"><path d="M2.809 14.755h10.373c1.635 0 2.486-.844 2.486-2.456V3.131c0-1.612-.851-2.456-2.486-2.456H2.81C1.18.675.33 1.511.33 3.131v9.168c0 1.612.851 2.456 2.479 2.456zM2.8 13.256c-.625 0-.972-.324-.972-.987V5.34c0-.664.347-.988.972-.988h10.39c.625 0 .972.324.972.987v6.931c0 .663-.347.987-.972.987H2.8zM6.545 6.95h.445c.27 0 .361-.082.361-.346v-.445c0-.27-.09-.354-.361-.354h-.445c-.271 0-.361.083-.361.354v.445c0 .264.09.346.361.346zm2.464 0h.444c.264 0 .354-.082.354-.346v-.445c0-.27-.09-.354-.354-.354H9.01c-.272 0-.362.083-.362.354v.445c0 .264.09.346.362.346zm2.456 0h.444c.271 0 .362-.082.362-.346v-.445c0-.27-.09-.354-.362-.354h-.444c-.264 0-.354.083-.354.354v.445c0 .264.09.346.354.346zM4.089 9.376h.437c.271 0 .362-.083.362-.354v-.444c0-.264-.09-.347-.362-.347H4.09c-.27 0-.361.083-.361.347v.444c0 .271.09.354.361.354zm2.456 0h.445c.27 0 .361-.083.361-.354v-.444c0-.264-.09-.347-.361-.347h-.445c-.271 0-.361.083-.361.347v.444c0 .271.09.354.361.354zm2.464 0h.444c.264 0 .354-.083.354-.354v-.444c0-.264-.09-.347-.354-.347H9.01c-.272 0-.362.083-.362.347v.444c0 .271.09.354.362.354zm2.456 0h.444c.271 0 .362-.083.362-.354v-.444c0-.264-.09-.347-.362-.347h-.444c-.264 0-.354.083-.354.347v.444c0 .271.09.354.354.354zm-7.376 2.418h.437c.271 0 .362-.082.362-.346v-.444c0-.272-.09-.355-.362-.355H4.09c-.27 0-.361.083-.361.355v.444c0 .264.09.346.361.346zm2.456 0h.445c.27 0 .361-.082.361-.346v-.444c0-.272-.09-.355-.361-.355h-.445c-.271 0-.361.083-.361.355v.444c0 .264.09.346.361.346zm2.464 0h.444c.264 0 .354-.082.354-.346v-.444c0-.272-.09-.355-.354-.355H9.01c-.272 0-.362.083-.362.355v.444c0 .264.09.346.362.346z"/></symbol><symbol id="circle-lefthalf-fill-icon" viewBox="0 0 16 16"><g clip-path="url(#a)"><path d="M7.993 15.493c4.271 0 7.797-3.525 7.797-7.79 0-4.263-3.533-7.789-7.797-7.789-4.272 0-7.79 3.526-7.79 7.79s3.526 7.79 7.79 7.79zm0-1.552V1.473c3.45 0 6.23 2.773 6.237 6.23a6.217 6.217 0 0 1-6.237 6.238z"/></g><defs><clipPath id="a"><path fill="#fff" d="M0 0h16v16H0z"/></clipPath></defs></symbol><symbol id="download-icon" viewBox="0 0 16 16"><g clip-path="url(#a)"><path d="M9.897 10.264v1.252h2.936c1.965 0 3.167-1.164 3.167-2.754 0-1.327-.757-2.397-2.003-2.892C14.003 3.04 11.962 1 9.34 1c-1.666 0-2.917.858-3.7 1.99-1.496-.369-3.261.764-3.324 2.53C.883 5.764 0 6.953 0 8.468c0 1.684 1.283 3.048 3.368 3.048h2.71v-1.252h-2.71c-1.365 0-2.104-.813-2.104-1.821 0-1.17.77-1.99 2.047-1.99.094 0 .132-.05.126-.138-.038-1.866 1.295-2.467 2.641-2.072.082.018.132.006.17-.063.6-1.095 1.533-1.934 3.085-1.934 1.966 0 3.368 1.558 3.462 3.38a7.46 7.46 0 0 1-.031 1.002c-.013.087.025.137.106.15 1.146.219 1.866.882 1.866 1.928 0 .914-.639 1.559-1.929 1.559h-2.91zm-1.91 5.083c.157 0 .288-.056.445-.2l2.103-1.978a.47.47 0 0 0 .17-.37.51.51 0 0 0-.527-.506.547.547 0 0 0-.394.175l-.87.876-.4.463.062-.926v-5.37a.59.59 0 0 0-.589-.577.594.594 0 0 0-.588.576v5.371l.069.926-.407-.463-.87-.876a.547.547 0 0 0-.394-.175.504.504 0 0 0-.52.507c0 .15.05.269.163.369l2.103 1.978c.157.144.294.2.444.2z"/></g><defs><clipPath id="a"><path fill="#fff" d="M0 0h16v16H0z"/></clipPath></defs></symbol><symbol id="dollarsign-circle-icon" viewBox="0 0 16 16"><g clip-path="url(#a)"><path d="M7.993 15.493c4.271 0 7.797-3.525 7.797-7.79 0-4.263-3.533-7.789-7.805-7.789C3.721-.086.203 3.44.203 7.704s3.526 7.79 7.79 7.79zm0-1.552A6.208 6.208 0 0 1 1.77 7.704a6.2 6.2 0 0 1 6.215-6.23 6.226 6.226 0 0 1 6.245 6.23 6.217 6.217 0 0 1-6.237 6.237zm-.008-2.004a.336.336 0 0 0 .347-.346v-.505c1.22-.113 2.14-.813 2.14-1.958 0-1.025-.664-1.628-1.975-1.869l-.165-.037V5.353c.482.083.813.37.957.814.113.248.27.392.542.392.301 0 .512-.204.512-.49 0-.09-.022-.173-.037-.264-.204-.776-.965-1.333-1.974-1.439v-.504a.336.336 0 0 0-.347-.347c-.196 0-.339.143-.339.347v.504c-1.19.12-2.034.844-2.034 1.891 0 .98.656 1.552 1.906 1.838l.128.03v1.99c-.61-.091-.964-.415-1.085-.86-.105-.27-.278-.406-.534-.406-.317 0-.52.21-.52.512 0 .083.022.166.045.264.218.798 1.017 1.356 2.094 1.454v.512c0 .21.143.347.34.347zm-.339-4.889l-.053-.015c-.602-.173-.881-.437-.881-.844 0-.414.354-.753.934-.843v1.702zm.686 1.25l.143.031c.655.18.889.452.889.881 0 .475-.347.821-1.032.904V8.3z"/></g><defs><clipPath id="a"><path fill="#fff" d="M0 0h16v16H0z"/></clipPath></defs></symbol><symbol id="gear-icon" viewBox="0 0 16 16"><path fill-rule="evenodd" d="M7.428 1.525a6.593 6.593 0 0 1 1.142 0c.036.003.108.036.137.146l.289 1.105c.147.56.55.967.997 1.189.174.086.341.183.501.29.417.278.97.423 1.53.27l1.102-.303c.11-.03.175.016.195.046.219.31.41.641.573.989.014.031.022.11-.059.19l-.815.806c-.411.406-.562.957-.53 1.456a4.588 4.588 0 0 1 0 .582c-.032.499.119 1.05.53 1.456l.815.806c.08.08.073.159.059.19a6.494 6.494 0 0 1-.573.99c-.02.029-.086.074-.195.045l-1.103-.303c-.559-.153-1.112-.008-1.529.27-.16.107-.327.204-.5.29-.449.222-.851.628-.998 1.189l-.289 1.105c-.029.11-.101.143-.137.146a6.613 6.613 0 0 1-1.142 0c-.036-.003-.108-.037-.137-.146l-.289-1.105c-.147-.56-.55-.967-.997-1.189a4.502 4.502 0 0 1-.501-.29c-.417-.278-.97-.423-1.53-.27l-1.102.303c-.11.03-.175-.016-.195-.046a6.492 6.492 0 0 1-.573-.989c-.014-.031-.022-.11.059-.19l.815-.806c.411-.406.562-.957.53-1.456a4.587 4.587 0 0 1 0-.582c.032-.499-.119-1.05-.53-1.456l-.815-.806c-.08-.08-.073-.159-.059-.19a6.44 6.44 0 0 1 .573-.99c.02-.029.086-.075.195-.045l1.103.303c.559.153 1.112.008 1.529-.27.16-.107.327-.204.5-.29.449-.222.851-.628.998-1.189l.29-1.105c.028-.11.1-.143.136-.146zM7.999 0c-.236 0-.47.01-.701.03-.743.065-1.29.615-1.458 1.261l-.29 1.106c-.017.066-.078.158-.211.224a5.994 5.994 0 0 0-.668.386c-.123.082-.233.09-.3.071L3.27 2.776c-.644-.177-1.392.02-1.82.63a8.061 8.061 0 0 0-.704 1.217c-.315.675-.111 1.422.364 1.891l.814.806c.05.048.098.147.088.294a6.084 6.084 0 0 0 0 .772c.01.147-.038.246-.088.294l-.815.806c-.474.469-.678 1.216-.363 1.891.2.428.436.835.704 1.218.428.609 1.176.806 1.82.63l1.103-.303c.066-.019.176-.011.299.071.213.143.436.272.668.386.133.066.194.158.212.224l.289 1.106c.169.646.715 1.196 1.458 1.26a8.094 8.094 0 0 0 1.402 0c.743-.064 1.29-.614 1.458-1.26l.29-1.106c.017-.066.078-.158.211-.224a5.98 5.98 0 0 0 .668-.386c.123-.082.233-.09.3-.071l1.102.302c.644.177 1.392-.02 1.82-.63.268-.382.505-.789.704-1.217.315-.675.111-1.422-.364-1.891l-.814-.806c-.05-.048-.098-.147-.088-.294a6.1 6.1 0 0 0 0-.772c-.01-.147.038-.246.088-.294l.815-.806c.474-.469.678-1.216.363-1.891a7.992 7.992 0 0 0-.704-1.218c-.428-.609-1.176-.806-1.82-.63l-1.103.303c-.066.019-.176.011-.299-.071a5.991 5.991 0 0 0-.668-.386c-.133-.066-.194-.158-.212-.224l-.289-1.106C9.99.645 9.443.095 8.7.031A8.094 8.094 0 0 0 8 0zm1.5 8a1.5 1.5 0 1 1-3 0 1.5 1.5 0 0 1 3 0zm1.5 0a3 3 0 1 1-6 0 3 3 0 0 1 6 0z" clip-rule="evenodd"/></symbol><symbol id="dollar-sign" viewBox="0 0 17 29"><path d="M9.661 13.138a7.39 7.39 0 0 1-.608-.232V1.236h.608c2.744.102 3.678.74 4.365 1.267-.487-.02-.97.11-1.384.372A2.488 2.488 0 0 0 11.7 3.98c-.2.456-.263.963-.18 1.456.084.493.309.95.647 1.31.338.36.773.61 1.25.714.476.105.973.06 1.425-.126.452-.187.84-.509 1.112-.924a2.55 2.55 0 0 0 .418-1.404C16.37 3.625 15.762 0 9.053 0 2.948 0 1.117 3.625 1.117 6.571c0 4.026 3.423 5.88 6.714 7.133v13.813c-3.361-.16-5.48-1.823-6.1-4.642.38.2.805.3 1.233.29a2.71 2.71 0 0 0 1.94-.824 2.852 2.852 0 0 0 .804-1.99 2.85 2.85 0 0 0-.803-1.99 2.71 2.71 0 0 0-1.94-.825c-.705 0-1.382.277-1.891.777-.509.5-.81 1.18-.841 1.903-.235 3.486.823 5.486 2.123 6.672C3.91 28.298 5.712 28.8 8.36 28.8c6.196 0 8.64-3.756 8.64-7.508-.017-3.46-1.848-6.432-7.34-8.154zM5.404 11.26V1.89a9.403 9.403 0 0 1 2.44-.56v11.048c-.922-.455-1.852-.92-2.44-1.118zm3.661 16.236V14.13c.876.308 1.707.59 2.423.87v12.167a16.23 16.23 0 0 1-2.435.329h.012z"/></symbol><symbol id="hash-icon" viewBox="0 0 16 16"><path fill-rule="evenodd" d="M6.369 1.01a.75.75 0 0 1 .622.859L6.57 4.5h3.98l.46-2.868a.75.75 0 0 1 1.48.237L12.07 4.5h2.18a.75.75 0 0 1 0 1.5h-2.42l-.64 4h2.56a.75.75 0 0 1 0 1.5h-2.8l-.46 2.869a.75.75 0 0 1-1.48-.237l.42-2.632H5.45l-.46 2.869a.75.75 0 0 1-1.48-.237l.42-2.632H1.75a.75.75 0 0 1 0-1.5h2.42l.64-4H2.25a.75.75 0 1 1 0-1.5h2.8l.46-2.868a.75.75 0 0 1 .859-.622zM9.67 10l.64-4H6.33l-.64 4h3.98z" clip-rule="evenodd"/></symbol><symbol id="kebab-horizontal-icon" viewBox="0 0 16 16"><path d="M1.5 9a1.5 1.5 0 1 0 0-3 1.5 1.5 0 0 0 0 3zM8 9a1.5 1.5 0 1 0 0-3 1.5 1.5 0 0 0 0 3zm8-1.5a1.5 1.5 0 1 1-3 0 1.5 1.5 0 0 1 3 0z"/></symbol><symbol id="filter-icon" viewBox="0 0 16 16"><path fill-rule="evenodd" d="M.75 3a.75.75 0 0 0 0 1.5h14.5a.75.75 0 0 0 0-1.5H.75zM3 7.75A.75.75 0 0 1 3.75 7h8.5a.75.75 0 0 1 0 1.5h-8.5A.75.75 0 0 1 3 7.75zm3 4a.75.75 0 0 1 .75-.75h2.5a.75.75 0 0 1 0 1.5h-2.5a.75.75 0 0 1-.75-.75z" clip-rule="evenodd"/></symbol><symbol id="moon-icon" viewBox="0 0 16 16"><path fill-rule="evenodd" d="M9.597 1.591a.75.75 0 0 1 .786-.175 7 7 0 1 1-8.967 8.967.75.75 0 0 1 .96-.96 5.5 5.5 0 0 0 7.046-7.046.75.75 0 0 1 .175-.786zm1.616 1.945a7 7 0 0 1-7.678 7.678 5.5 5.5 0 1 0 7.678-7.678z" clip-rule="evenodd"/></symbol><symbol id="plus-icon" viewBox="0 0 16 16"><path fill-rule="evenodd" d="M8 2a.75.75 0 0 1 .75.75v4.5h4.5a.75.75 0 0 1 0 1.5h-4.5v4.5a.75.75 0 0 1-1.5 0v-4.5h-4.5a.75.75 0 0 1 0-1.5h4.5v-4.5A.75.75 0 0 1 8 2z" clip-rule="evenodd"/></symbol><symbol id="plus-circle-icon" viewBox="0 0 16 16"><path fill-rule="evenodd" d="M8 4a.75.75 0 0 1 .75.75v2.5h2.5a.75.75 0 0 1 0 1.5h-2.5v2.5a.75.75 0 0 1-1.5 0v-2.5h-2.5a.75.75 0 0 1 0-1.5h2.5v-2.5A.75.75 0 0 1 8 4z" clip-rule="evenodd"/><path fill-rule="evenodd" d="M2.343 2.343a8 8 0 1 0 11.314 11.314A8 8 0 0 0 2.343 2.343zm1.06 10.253a6.5 6.5 0 1 1 9.193-9.192 6.5 6.5 0 0 1-9.192 9.192z" clip-rule="evenodd"/></symbol><symbol id="typography-icon" viewBox="0 0 16 16"><g clip-path="url(#a)"><path fill-rule="evenodd" d="M6.21 8.5L4.574 3.594 2.857 8.5H6.21zm.5 1.5l.829 2.487a.75.75 0 0 0 1.423-.474L5.735 2.332a1.216 1.216 0 0 0-2.302-.018l-3.39 9.688a.75.75 0 0 0 1.415.496L2.332 10H6.71zm3.13-4.358C10.53 4.374 11.87 4 13 4c1.5 0 3 .939 3 2.601v5.649a.75.75 0 0 1-1.448.275C13.995 12.82 13.3 13 12.5 13c-.77 0-1.514-.231-2.078-.709-.577-.488-.922-1.199-.922-2.041 0-.694.265-1.411.887-1.944C11 7.78 11.88 7.5 13 7.5h1.5v-.899c0-.54-.5-1.101-1.5-1.101-.869 0-1.528.282-1.84.858a.75.75 0 1 1-1.32-.716zM14.5 9H13c-.881 0-1.375.22-1.637.444-.253.217-.363.5-.363.806 0 .408.155.697.39.896.249.21.63.354 1.11.354.732 0 1.26-.209 1.588-.449.35-.257.412-.495.412-.551V9z" clip-rule="evenodd"/></g><defs><clipPath id="a"><path fill="#fff" d="M0 0h16v16H0z"/></clipPath></defs></symbol><symbol id="minus-circle-icon" viewBox="0 0 16 16"><path fill-rule="evenodd" d="M11.25 8.75a.75.75 0 0 0 0-1.5h-6.5a.75.75 0 0 0 0 1.5h6.5z" clip-rule="evenodd"/><path fill-rule="evenodd" d="M2.343 2.343a8 8 0 1 0 11.314 11.314A8 8 0 0 0 2.343 2.343zm1.06 10.253a6.5 6.5 0 1 1 9.193-9.192 6.5 6.5 0 0 1-9.192 9.192z" clip-rule="evenodd"/></symbol><symbol id="minus-icon" viewBox="0 0 16 16"><path fill-rule="evenodd" d="M13.25 8.75a.75.75 0 0 0 0-1.5H2.75a.75.75 0 0 0 0 1.5h10.5z" clip-rule="evenodd"/></symbol><symbol id="sort-desc-icon" viewBox="0 0 16 16"><path fill-rule="evenodd" d="M0 4.25a.75.75 0 0 1 .75-.75h7.5a.75.75 0 0 1 0 1.5H.75A.75.75 0 0 1 0 4.25zm0 4a.75.75 0 0 1 .75-.75h4.5a.75.75 0 0 1 0 1.5H.75A.75.75 0 0 1 0 8.25zm0 4a.75.75 0 0 1 .75-.75h2.5a.75.75 0 0 1 0 1.5H.75a.75.75 0 0 1-.75-.75z" clip-rule="evenodd"/><path d="M13.5 10h2.25a.25.25 0 0 1 .177.427l-3 3a.25.25 0 0 1-.354 0l-3-3A.25.25 0 0 1 9.75 10H12V3.75a.75.75 0 0 1 1.5 0V10z"/></symbol><symbol id="x-icon" viewBox="0 0 16 16"><path fill-rule="evenodd" d="M3.72 3.72a.75.75 0 0 1 1.06 0L8 6.94l3.22-3.22a.75.75 0 1 1 1.06 1.06L9.06 8l3.22 3.22a.75.75 0 1 1-1.06 1.06L8 9.06l-3.22 3.22a.75.75 0 0 1-1.06-1.06L6.94 8 3.72 4.78a.75.75 0 0 1 0-1.06z" clip-rule="evenodd"/></symbol><symbol id="x-circle-icon" viewBox="0 0 16 16"><path d="M6.03 4.97a.75.75 0 0 0-1.06 1.06L6.94 8 4.97 9.97a.75.75 0 1 0 1.06 1.06L8 9.06l1.97 1.97a.75.75 0 1 0 1.06-1.06L9.06 8l1.97-1.97a.75.75 0 1 0-1.06-1.06L8 6.94 6.03 4.97z"/><path fill-rule="evenodd" d="M2.343 2.343a8 8 0 1 0 11.314 11.314A8 8 0 0 0 2.343 2.343zm1.06 10.253a6.5 6.5 0 1 1 9.193-9.192 6.5 6.5 0 0 1-9.192 9.192z" clip-rule="evenodd"/></symbol><symbol id="sun-icon" viewBox="0 0 16 16"><g fill-rule="evenodd" clip-path="url(#a)" clip-rule="evenodd"><path d="M8 10.5a2.5 2.5 0 1 0 0-5 2.5 2.5 0 0 0 0 5zM8 12a4 4 0 1 0 0-8 4 4 0 0 0 0 8zM8 0a.75.75 0 0 1 .75.75v1.5a.75.75 0 0 1-1.5 0V.75A.75.75 0 0 1 8 0zm0 13a.75.75 0 0 1 .75.75v1.5a.75.75 0 0 1-1.5 0v-1.5A.75.75 0 0 1 8 13zM2.343 2.343a.75.75 0 0 1 1.061 0l1.06 1.061a.75.75 0 0 1-1.06 1.06l-1.06-1.06a.75.75 0 0 1 0-1.06zm9.193 9.193a.75.75 0 0 1 1.06 0l1.061 1.06a.75.75 0 0 1-1.06 1.061l-1.061-1.06a.75.75 0 0 1 0-1.061zM16 8a.75.75 0 0 1-.75.75h-1.5a.75.75 0 0 1 0-1.5h1.5A.75.75 0 0 1 16 8zM3 8a.75.75 0 0 1-.75.75H.75a.75.75 0 0 1 0-1.5h1.5A.75.75 0 0 1 3 8zm10.657-5.657a.75.75 0 0 1 0 1.061l-1.061 1.06a.75.75 0 1 1-1.06-1.06l1.06-1.06a.75.75 0 0 1 1.06 0zm-9.193 9.193a.75.75 0 0 1 0 1.06l-1.06 1.061a.75.75 0 1 1-1.061-1.06l1.06-1.061a.75.75 0 0 1 1.061 0z"/></g><defs><clipPath id="a"><path fill="#fff" d="M0 0h16v16H0z"/></clipPath></defs></symbol><symbol id="upload-icon" viewBox="0 0 16 16"><g clip-path="url(#a)"><path d="M9.897 10.264v1.252h2.936c1.965 0 3.167-1.164 3.167-2.754 0-1.327-.757-2.397-2.003-2.892C14.003 3.04 11.962 1 9.34 1c-1.666 0-2.917.858-3.7 1.99-1.496-.369-3.261.764-3.324 2.53C.883 5.764 0 6.953 0 8.468c0 1.684 1.283 3.048 3.368 3.048h2.71v-1.252h-2.71c-1.365 0-2.104-.813-2.104-1.821 0-1.17.77-1.99 2.047-1.99.094 0 .132-.05.126-.138-.038-1.866 1.295-2.467 2.641-2.072.082.018.132.006.17-.063.6-1.095 1.533-1.934 3.085-1.934 1.966 0 3.368 1.558 3.462 3.38a7.46 7.46 0 0 1-.031 1.002c-.013.087.025.137.106.15 1.146.219 1.866.882 1.866 1.928 0 .914-.639 1.559-1.929 1.559h-2.91zm-1.91 4.382a.585.585 0 0 0 .589-.576V8.305l-.063-1.114.4.463.871.877c.106.112.25.175.394.175a.51.51 0 0 0 .526-.507.47.47 0 0 0-.169-.37L8.432 5.851c-.157-.144-.288-.2-.445-.2-.15 0-.287.056-.444.2L5.44 7.83a.463.463 0 0 0-.163.37c0 .294.232.507.52.507a.547.547 0 0 0 .394-.175l.87-.877.407-.463-.069 1.114v5.765c0 .313.27.576.588.576z"/></g><defs><clipPath id="a"><path fill="#fff" d="M0 0h16v16H0z"/></clipPath></defs></symbol></svg>