<svg width="131" height="20" viewBox="0 0 131 20" fill="none" xmlns="http://www.w3.org/2000/svg">
<path d="M3.06023 12.4335C3.06023 10.5735 4.18023 9.39352 5.70024 9.39352C7.22024 9.39352 8.26024 10.5535 8.26024 12.4135C8.26024 14.2735 7.20023 15.5335 5.68023 15.5335C4.10023 15.5335 3.06023 14.2935 3.06023 12.4335ZM10.5002 2.85352H8.24024V8.73352C7.94023 8.11352 7.08023 7.33352 5.38023 7.33352C2.64023 7.33352 0.740234 9.63352 0.740234 12.4335C0.740234 15.3735 2.62023 17.5735 5.42024 17.5735C6.80023 17.5735 7.82024 16.8935 8.28024 16.0735C8.28024 16.4735 8.34024 17.1135 8.38024 17.3335H10.6002C10.5802 17.1735 10.5002 16.4335 10.5002 15.5535V2.85352Z" fill="white"/>
<path d="M15.1515 11.3935C15.2315 10.3535 16.0715 9.23352 17.5315 9.23352C19.1315 9.23352 19.8915 10.2535 19.9315 11.3935H15.1515ZM20.1915 13.9335C19.8715 14.8935 19.1515 15.6335 17.7515 15.6335C16.3115 15.6335 15.1515 14.5735 15.0915 13.0935H22.2115C22.2315 13.0535 22.2715 12.7335 22.2715 12.3535C22.2715 9.27352 20.5115 7.29352 17.5115 7.29352C15.0515 7.29352 12.7715 9.33352 12.7715 12.4135C12.7715 15.7135 15.1115 17.6335 17.7515 17.6335C20.0915 17.6335 21.6315 16.2535 22.1515 14.5535L20.1915 13.9335Z" fill="white"/>
<path d="M33.0932 7.59352H30.6532L28.1332 14.5535L25.5532 7.59352H22.9932L26.9532 17.3335H29.2732L33.0932 7.59352Z" fill="white"/>
<path d="M58.7738 2.7533C56.7738 2.7533 55.3738 4.0733 55.3738 6.2533V7.5933H53.6738V9.6133H55.3738V17.3333H57.7138V9.6133H61.9138V17.3333H64.1938V7.5933H57.7138V6.3133C57.7138 5.1133 58.5538 4.8333 59.1538 4.8333C59.5938 4.8333 59.8538 4.8933 59.9938 4.9333V2.9533C59.8338 2.8733 59.3538 2.7533 58.7738 2.7533ZM61.5538 4.1533C61.5538 4.9733 62.2138 5.6533 63.0538 5.6533C63.8938 5.6533 64.5738 4.9733 64.5738 4.1533C64.5738 3.3133 63.8938 2.6333 63.0538 2.6333C62.2138 2.6333 61.5538 3.3133 61.5538 4.1533Z" fill="white"/>
<path d="M69.5366 11.7133C69.5366 10.4333 70.2366 9.4133 71.5566 9.4133C73.0166 9.4133 73.5566 10.3733 73.5566 11.5733V17.3333H75.8766V11.1733C75.8766 9.0333 74.7366 7.3133 72.3566 7.3133C71.2766 7.3133 70.1166 7.7733 69.4766 8.8933V7.5933H67.2166V17.3333H69.5366V11.7133Z" fill="white"/>
<path d="M78.101 14.6933C78.101 16.2333 79.361 17.6333 81.401 17.6333C82.981 17.6333 83.941 16.8333 84.401 16.0933C84.401 16.8733 84.481 17.2733 84.501 17.3333H86.661C86.641 17.2333 86.541 16.6533 86.541 15.7733V10.9333C86.541 8.9933 85.401 7.2933 82.401 7.2933C80.001 7.2933 78.481 8.7933 78.301 10.4733L80.421 10.9533C80.521 9.9733 81.201 9.1933 82.421 9.1933C83.701 9.1933 84.261 9.8533 84.261 10.6733C84.261 11.0133 84.101 11.2933 83.541 11.3733L81.041 11.7533C79.381 11.9933 78.101 12.9533 78.101 14.6933ZM81.841 15.8133C80.921 15.8133 80.421 15.2133 80.421 14.5533C80.421 13.7533 81.001 13.3533 81.721 13.2333L84.261 12.8533V13.2933C84.261 15.1933 83.141 15.8133 81.841 15.8133Z" fill="white"/>
<path d="M91.6656 11.7133C91.6656 10.4333 92.3656 9.4133 93.6856 9.4133C95.1456 9.4133 95.6856 10.3733 95.6856 11.5733V17.3333H98.0056V11.1733C98.0056 9.0333 96.8656 7.3133 94.4856 7.3133C93.4056 7.3133 92.2456 7.7733 91.6056 8.8933V7.5933H89.3456V17.3333H91.6656V11.7133Z" fill="white"/>
<path d="M105.07 9.4333C106.55 9.4333 107.21 10.3933 107.43 11.2533L109.51 10.4933C109.11 8.9333 107.67 7.2933 105.05 7.2933C102.25 7.2933 100.07 9.4533 100.07 12.4533C100.07 15.4133 102.25 17.6333 105.11 17.6333C107.67 17.6333 109.13 15.9733 109.59 14.4533L107.55 13.7133C107.33 14.4533 106.63 15.5133 105.11 15.5133C103.65 15.5133 102.39 14.4133 102.39 12.4533C102.39 10.4933 103.65 9.4333 105.07 9.4333Z" fill="white"/>
<path d="M113.173 11.3933C113.253 10.3533 114.093 9.2333 115.553 9.2333C117.153 9.2333 117.913 10.2533 117.953 11.3933H113.173ZM118.213 13.9333C117.893 14.8933 117.173 15.6333 115.773 15.6333C114.333 15.6333 113.173 14.5733 113.113 13.0933H120.233C120.253 13.0533 120.293 12.7333 120.293 12.3533C120.293 9.2733 118.533 7.2933 115.533 7.2933C113.073 7.2933 110.793 9.3333 110.793 12.4133C110.793 15.7133 113.133 17.6333 115.773 17.6333C118.113 17.6333 119.653 16.2533 120.173 14.5533L118.213 13.9333Z" fill="white"/>
<path d="M121.65 14.6933C121.77 15.7933 122.85 17.6333 125.67 17.6333C128.15 17.6333 129.35 15.9933 129.35 14.5133C129.35 13.0733 128.39 11.9533 126.55 11.5533L125.07 11.2533C124.47 11.1333 124.09 10.7533 124.09 10.2333C124.09 9.6333 124.67 9.1133 125.49 9.1133C126.79 9.1133 127.21 10.0133 127.29 10.5733L129.25 10.0133C129.09 9.0533 128.21 7.2933 125.49 7.2933C123.47 7.2933 121.91 8.7333 121.91 10.4333C121.91 11.7733 122.81 12.8933 124.53 13.2733L125.97 13.5933C126.75 13.7533 127.11 14.1533 127.11 14.6733C127.11 15.2733 126.61 15.7933 125.65 15.7933C124.41 15.7933 123.75 15.0133 123.67 14.1333L121.65 14.6933Z" fill="white"/>
<path fill-rule="evenodd" clip-rule="evenodd" d="M36.3333 11.667L48 11.667L48 13.667L36.3333 13.667L36.3333 11.667Z" fill="#BCFF05"/>
<path fill-rule="evenodd" clip-rule="evenodd" d="M43.3341 6.58594L48.7079 11.9597C49.0984 12.3502 49.0984 12.9834 48.7079 13.3739L43.3341 18.7477L41.9199 17.3335L46.5866 12.6668L41.9199 8.00015L43.3341 6.58594Z" fill="#BCFF05"/>
</svg>
